# xmcd CD database file
#
# Track frame offsets:
#	150
#	11078
#	21744
#	33096
#	45278
#	57704
#	63954
#	77167
#	88327
#	100065
#	113189
#	126472
#	139289
#	150225
#	163061
#	174947
#	186313
#	197722
#	208666
#	219808
#	230240
#	241717
#	251935
#	265765
#	276355
#	285711
#	296976
#	307844
#
# Disc length: 4282 seconds
#
# Revision: 0
# Processed by: cddbd v1.5.2PL0 Copyright (c) Steve Scherf et al.
# Submitted via: CDex 1.70beta2
#
DISCID=a310b81c
DTITLE=Sons of the Pioneers - Cdn. - Down Memory Trail
DYEAR=1900
DGENRE=Country
TTITLE0=Harbour Lights
TTITLE1=Stars Above Hawaii
TTITLE2=Stars and Stripes On Iwo Jima
TTITLE3=Strawberry Roan
TTITLE4=Suddenley Tjhere's A Valley
TTITLE5=Sweet Betsy Fro0m Pike
TTITLE6=Teardrops In My heart
TTITLE7=That Lucky Old Sun
TTITLE8=The Cattle Call
TTITLE9=The Cowboy's Lament ( Streets of Laredo)
TTITLE10=The everlasting Hills of Oklahoma
TTITLE11=The Last Round-Up
TTITLE12=The Lord's Prayer
TTITLE13=The Old Rugged Cross
TTITLE14=The Searchers
TTITLE15=There's A Gold Mine In the Sky
TTITLE16=Tiny Bubbles
TTITLE17=Tumbling Tumbleweeds
TTITLE18=Twlight On the Trail
TTITLE19=Vaya Con Dios
TTITLE20=Wagon Train
TTITLE21=Wagon Weels
TTITLE22=When It Springtime In the Rockies
TTITLE23=When the Bloom Is On the Sage
TTITLE24=Whoopie-ti-yi-ho (Git Along Little Doggies)
TTITLE25=You Belong To My Heart
TTITLE26=Yours 
TTITLE27=Pecos Bill - wt. Roy Rogers
EXTD=
EXTT0=
EXTT1=
EXTT2=
EXTT3=
EXTT4=
EXTT5=
EXTT6=
EXTT7=
EXTT8=
EXTT9=
EXTT10=
EXTT11=
EXTT12=
EXTT13=
EXTT14=
EXTT15=
EXTT16=
EXTT17=
EXTT18=
EXTT19=
EXTT20=
EXTT21=
EXTT22=
EXTT23=
EXTT24=
EXTT25=
EXTT26=
EXTT27=
PLAYORDER=
